<svg xmlns="http://www.w3.org/2000/svg" version="1.1" xmlns:xlink="http://www.w3.org/1999/xlink" xmlns:svgjs="http://svgjs.dev/svgjs" width="1440" height="560" preserveAspectRatio="none" viewBox="0 0 1440 560"><g mask="url(&quot;#SvgjsMask1028&quot;)" fill="none"><rect width="1440" height="560" x="0" y="0" fill="rgba(118, 146, 255, 1)"></rect><path d="M 0,194 C 36,229.6 108,403.6 180,372 C 252,340.4 288,24.6 360,36 C 432,47.4 468,390.6 540,429 C 612,467.4 648,237.2 720,228 C 792,218.8 828,384.6 900,383 C 972,381.4 1008,228.6 1080,220 C 1152,211.4 1188,344.8 1260,340 C 1332,335.2 1404,224.8 1440,196L1440 560L0 560z" fill="rgba(51, 80, 162, 1)"></path><path d="M 0,167 C 57.6,237.8 172.8,506.6 288,521 C 403.2,535.4 460.8,232.2 576,239 C 691.2,245.8 748.8,555.6 864,555 C 979.2,554.4 1036.8,284.4 1152,236 C 1267.2,187.6 1382.4,297.6 1440,313L1440 560L0 560z" fill="rgba(149, 185, 255, 1)"></path></g><defs><mask id="SvgjsMask1028"><rect width="1440" height="560" fill="#ffffff"></rect></mask></defs></svg>